<svg
  width="1em"
  height="1em"
  preserveAspectRatio="none"
  xmlns="http://www.w3.org/2000/svg"
  viewBox="0 0 1440 320"
>
  <path
    d="M0,320L48,32L96,32L144,224L192,256L240,0L288,192L336,288L384,224L432,128L480,256L528,32L576,96L624,64L672,64L720,160L768,32L816,192L864,128L912,128L960,32L1008,224L1056,160L1104,0L1152,64L1200,256L1248,64L1296,224L1344,160L1392,96L1440,32L1440,0L1392,0L1344,0L1296,0L1248,0L1200,0L1152,0L1104,0L1056,0L1008,0L960,0L912,0L864,0L816,0L768,0L720,0L672,0L624,0L576,0L528,0L480,0L432,0L384,0L336,0L288,0L240,0L192,0L144,0L96,0L48,0L0,0Z"
  ></path>
</svg>
