<svg
  width="1em"
  height="1em"
  preserveAspectRatio="none"
  viewBox="0 0 1440 320"
  fill="none"
  xmlns="http://www.w3.org/2000/svg"
>
  <path
    d="M0,0L0,32L36.9,32L36.9,128L73.8,128L73.8,224L110.8,224L110.8,160L147.7,160L147.7,64L184.6,64L184.6,224L221.5,224L221.5,288L258.5,288L258.5,256L295.4,256L295.4,256L332.3,256L332.3,160L369.2,160L369.2,288L406.2,288L406.2,256L443.1,256L443.1,64L480,64L480,160L516.9,160L516.9,256L553.8,256L553.8,32L590.8,32L590.8,288L627.7,288L627.7,96L664.6,96L664.6,224L701.5,224L701.5,288L738.5,288L738.5,32L775.4,32L775.4,128L812.3,128L812.3,288L849.2,288L849.2,0L886.2,0L886.2,64L923.1,64L923.1,128L960,128L960,224L996.9,224L996.9,192L1033.8,192L1033.8,96L1070.8,96L1070.8,128L1107.7,128L1107.7,0L1144.6,0L1144.6,192L1181.5,192L1181.5,320L1218.5,320L1218.5,96L1255.4,96L1255.4,192L1292.3,192L1292.3,224L1329.2,224L1329.2,192L1366.2,192L1366.2,288L1403.1,288L1403.1,128L1440,128L1440,0L1403.1,0L1403.1,0L1366.2,0L1366.2,0L1329.2,0L1329.2,0L1292.3,0L1292.3,0L1255.4,0L1255.4,0L1218.5,0L1218.5,0L1181.5,0L1181.5,0L1144.6,0L1144.6,0L1107.7,0L1107.7,0L1070.8,0L1070.8,0L1033.8,0L1033.8,0L996.9,0L996.9,0L960,0L960,0L923.1,0L923.1,0L886.2,0L886.2,0L849.2,0L849.2,0L812.3,0L812.3,0L775.4,0L775.4,0L738.5,0L738.5,0L701.5,0L701.5,0L664.6,0L664.6,0L627.7,0L627.7,0L590.8,0L590.8,0L553.8,0L553.8,0L516.9,0L516.9,0L480,0L480,0L443.1,0L443.1,0L406.2,0L406.2,0L369.2,0L369.2,0L332.3,0L332.3,0L295.4,0L295.4,0L258.5,0L258.5,0L221.5,0L221.5,0L184.6,0L184.6,0L147.7,0L147.7,0L110.8,0L110.8,0L73.8,0L73.8,0L36.9,0L36.9,0L0,0L0,0Z"
  ></path>
</svg>
