<svg
  width="1em"
  height="1em"
  preserveAspectRatio="none"
  xmlns="http://www.w3.org/2000/svg"
  viewBox="0 0 1440 320"
>
  <path
    d="M0,64L16,64C32,64,64,64,96,58.7C128,53,160,43,192,69.3C224,96,256,160,288,176C320,192,352,160,384,160C416,160,448,192,480,202.7C512,213,544,203,576,192C608,181,640,171,672,160C704,149,736,139,768,117.3C800,96,832,64,864,90.7C896,117,928,203,960,208C992,213,1024,139,1056,101.3C1088,64,1120,64,1152,101.3C1184,139,1216,213,1248,234.7C1280,256,1312,224,1344,202.7C1376,181,1408,171,1424,165.3L1440,160L1440,0L1424,0C1408,0,1376,0,1344,0C1312,0,1280,0,1248,0C1216,0,1184,0,1152,0C1120,0,1088,0,1056,0C1024,0,992,0,960,0C928,0,896,0,864,0C832,0,800,0,768,0C736,0,704,0,672,0C640,0,608,0,576,0C544,0,512,0,480,0C448,0,416,0,384,0C352,0,320,0,288,0C256,0,224,0,192,0C160,0,128,0,96,0C64,0,32,0,16,0L0,0Z"
  ></path>
</svg>
