<svg
  viewBox="0 0 24 24"
  width="1em"
  height="1em"
  fill="none"
  stroke="currentColor"
  stroke-width="2"
  xmlns="http://www.w3.org/2000/svg"
>
  <path
    d="M21.887,5.996C21.579,3.682 19.589,1.856 17.232,1.504C16.833,1.445 15.326,1.226 11.834,1.226L11.808,1.226C8.313,1.226 7.565,1.445 7.166,1.504C4.871,1.849 2.779,3.486 2.269,5.83C2.027,6.983 2.001,8.263 2.047,9.436C2.112,11.12 2.125,12.797 2.275,14.475C2.38,15.588 2.56,16.692 2.818,17.779C3.302,19.788 5.257,21.459 7.173,22.138C9.222,22.848 11.429,22.967 13.541,22.48C13.773,22.423 14.002,22.36 14.231,22.287C14.744,22.122 15.345,21.936 15.79,21.611C15.796,21.608 15.8,21.601 15.803,21.595C15.806,21.588 15.81,21.581 15.81,21.571L15.81,19.947C15.81,19.947 15.81,19.934 15.803,19.927C15.803,19.921 15.796,19.914 15.79,19.911C15.783,19.907 15.777,19.904 15.77,19.901L15.751,19.901C14.397,20.229 13.008,20.395 11.619,20.391C9.222,20.391 8.578,19.238 8.395,18.761C8.248,18.346 8.153,17.912 8.114,17.474C8.114,17.468 8.114,17.461 8.117,17.455C8.117,17.448 8.124,17.441 8.13,17.438C8.137,17.435 8.143,17.431 8.15,17.428L8.173,17.428C9.503,17.753 10.87,17.919 12.24,17.919C12.57,17.919 12.897,17.919 13.227,17.909C14.603,17.869 16.055,17.799 17.411,17.531C17.444,17.524 17.48,17.518 17.509,17.511C19.647,17.093 21.681,15.787 21.887,12.479C21.893,12.35 21.913,11.114 21.913,10.981C21.913,10.52 22.06,7.723 21.89,6.002L21.887,5.996Z"
  ></path>
  <path
    d="M6.061,7.288C6.061,6.612 6.594,6.069 7.254,6.069C7.915,6.069 8.447,6.616 8.447,7.288C8.447,7.961 7.915,8.508 7.254,8.508C6.594,8.508 6.061,7.961 6.061,7.288Z"
    stroke-width="1"
    fill="currentColor"
  ></path>
</svg>
