<svg width="1em" height="1em" viewBox="0 0 29 29" fill="none" xmlns="http://www.w3.org/2000/svg">
  <path
    d="M9.15622 22.4251C8.94007 22.4251 8.832 22.1334 8.832 21.5475V7.08028C8.832 6.80071 8.77676 6.66944 8.66388 6.68645L7.62877 6.94901C7.43904 6.96602 7.34538 6.77397 7.34538 6.37285V5.11599C7.34538 4.76835 7.44865 4.57144 7.65519 4.52768L11.0703 3.63791C11.0967 3.63062 11.1352 3.62576 11.1856 3.62576C11.3753 3.62576 11.469 3.82996 11.469 4.24081V21.5499C11.469 22.1358 11.3561 22.4275 11.1328 22.4275L9.15622 22.4251ZM18.0015 22.4518C17.6556 22.4518 17.3578 22.4275 17.1033 22.3789C16.8487 22.3303 16.5845 22.2209 16.3083 22.0507C16.0321 21.8805 15.8064 21.6472 15.6287 21.3506C15.4509 21.054 15.3068 20.6383 15.1964 20.1059C15.0859 19.5735 15.0282 18.9414 15.0282 18.2072V11.4926C15.0282 11.3176 14.9802 11.2301 14.8865 11.2301H14.0844C13.8682 11.2301 13.7602 11.021 13.7602 10.6029V9.89545C13.7602 9.46758 13.8682 9.25365 14.0844 9.25365H14.8865C14.9802 9.25365 15.0282 9.13696 15.0282 8.90114L15.2612 3.80808C15.2876 3.34618 15.3981 3.11523 15.5974 3.11523H16.8919C17.1081 3.11523 17.2161 3.34618 17.2161 3.80808V8.90114C17.2161 9.13696 17.2666 9.25365 17.3723 9.25365H19.0222C19.2383 9.25365 19.3464 9.46758 19.3464 9.89545V10.6029C19.3464 11.021 19.2383 11.2301 19.0222 11.2301H17.3674C17.3074 11.2301 17.2666 11.2447 17.245 11.2763C17.2233 11.3055 17.2137 11.3784 17.2137 11.4926V18.2485C17.2137 18.7542 17.245 19.1772 17.3098 19.5127C17.3747 19.8482 17.4683 20.0962 17.5932 20.2517C17.7181 20.4073 17.843 20.5143 17.9679 20.5653C18.0927 20.6188 18.2465 20.6431 18.4266 20.6431H19.344C19.577 20.6431 19.6922 20.806 19.6922 21.1269V21.9121C19.6922 22.2695 19.5674 22.4494 19.3176 22.4494L18.0015 22.4518ZM22.9657 24.0223C23.1626 24.0223 23.3355 23.8594 23.482 23.5312C23.6285 23.203 23.703 22.7387 23.703 22.1358C23.703 21.9948 23.6165 21.511 23.4436 20.682L20.9075 10.0121C20.8907 9.89058 20.8811 9.79334 20.8811 9.72284C20.8811 9.40923 20.9459 9.25122 21.0756 9.25122H22.6415C22.7615 9.25122 22.86 9.29254 22.9393 9.3752C23.0185 9.45786 23.0786 9.6256 23.1194 9.87843L24.8005 18.8855C24.8342 18.99 24.8558 19.0435 24.8654 19.0435C24.899 19.0435 24.9182 18.9949 24.9182 18.9001L26.2367 9.91733C26.2704 9.65477 26.3256 9.47974 26.3976 9.38736C26.4697 9.29498 26.5634 9.24879 26.6762 9.24879H27.7618C27.9083 9.24879 27.9827 9.41896 27.9827 9.75931C27.9827 9.8371 27.9731 9.9392 27.9563 10.0608L25.6531 22.199C25.473 23.203 25.2737 23.9713 25.0575 24.5037C24.8414 25.0361 24.6012 25.3983 24.3322 25.5903C24.0165 25.7969 23.6465 25.902 23.2707 25.8918H23.141C22.4421 25.8918 21.969 25.7046 21.7192 25.3278C21.6496 25.25 21.616 25.0482 21.616 24.7249C21.616 24.0782 21.7192 23.7549 21.9258 23.7549C21.9426 23.7549 22.0987 23.7986 22.3917 23.8862C22.6895 23.9785 22.8792 24.0223 22.9657 24.0223ZM2.64776 22.4494C2.43161 22.4494 2.32353 22.1577 2.32353 21.5718V7.10459C2.32353 6.82502 2.2683 6.69375 2.15542 6.71076L1.12031 6.97332C0.930578 6.99034 0.836914 6.79828 0.836914 6.39716V5.1403C0.836914 4.79266 0.940185 4.59575 1.14673 4.55199L4.56427 3.65979C4.59069 3.6525 4.62911 3.64764 4.67955 3.64764C4.86928 3.64764 4.96294 3.85184 4.96294 4.26269V21.5718C4.96294 22.1577 4.85007 22.4494 4.62671 22.4494H2.64776Z"
    fill="currentColor"
  />
</svg>
